M48
; DRILL file {KiCad 9.0.3} date 2025-07-17T19:04:53+0100
; FORMAT={-:-/ absolute / metric / decimal}
; #@! TF.CreationDate,2025-07-17T19:04:53+01:00
; #@! TF.GenerationSoftware,Kicad,Pcbnew,9.0.3
; #@! TF.FileFunction,Plated,1,2,PTH
FMAT,2
METRIC
; #@! TA.AperFunction,Plated,PTH,ViaDrill
T1C0.300
; #@! TA.AperFunction,Plated,PTH,ComponentDrill
T2C0.750
; #@! TA.AperFunction,Plated,PTH,ComponentDrill
T3C0.800
; #@! TA.AperFunction,Plated,PTH,ComponentDrill
T4C1.000
; #@! TA.AperFunction,Plated,PTH,ComponentDrill
T5C1.100
; #@! TA.AperFunction,Plated,PTH,ComponentDrill
T6C1.200
; #@! TA.AperFunction,Plated,PTH,ComponentDrill
T7C1.520
; #@! TA.AperFunction,Plated,PTH,ComponentDrill
T8C1.600
; #@! TA.AperFunction,Plated,PTH,ComponentDrill
T9C3.200
%
G90
G05
T1
X29.21Y-85.09
X29.21Y-93.98
X30.48Y-85.09
X30.48Y-91.44
X34.29Y-62.23
X43.18Y-66.04
X53.471Y-99.729
X63.5Y-81.28
X63.631Y-99.729
X72.39Y-76.2
X78.74Y-54.61
X80.01Y-100.33
X81.28Y-60.96
X81.28Y-67.31
X81.28Y-97.79
X83.82Y-60.96
X83.82Y-73.66
X85.09Y-93.98
X95.25Y-87.63
X100.33Y-74.93
X101.6Y-97.79
X107.95Y-76.2
X111.76Y-66.04
X118.11Y-96.52
T2
X116.84Y-100.33
X116.84Y-107.95
X118.11Y-100.33
X118.11Y-107.95
X119.38Y-100.33
X119.38Y-107.95
T3
X63.5Y-60.96
X63.5Y-68.58
X76.16Y-99.06
X76.16Y-106.68
X76.16Y-109.22
X76.16Y-116.84
X78.66Y-43.26
X78.66Y-48.26
X81.24Y-102.87
X81.24Y-105.41
X81.24Y-107.95
X81.24Y-110.49
X81.24Y-113.03
X81.24Y-115.57
X81.24Y-118.11
X81.28Y-38.1
X83.78Y-38.1
X83.82Y-43.26
X83.82Y-48.26
X83.86Y-97.79
X88.86Y-97.79
X88.86Y-102.87
X88.86Y-105.41
X88.86Y-107.95
X88.86Y-110.49
X88.86Y-113.03
X88.86Y-115.57
X88.86Y-118.11
X91.44Y-80.374
X91.44Y-85.374
X93.98Y-90.17
X93.98Y-97.79
X93.98Y-110.49
X93.98Y-118.11
X97.06Y-82.55
X99.06Y-82.55
X99.06Y-90.17
X99.06Y-97.79
X99.06Y-102.95
X99.06Y-107.95
X99.06Y-110.49
X99.06Y-118.11
X104.14Y-100.33
X104.14Y-107.95
X106.68Y-90.17
X106.68Y-97.79
X106.68Y-100.33
X106.68Y-107.95
X106.68Y-110.49
X106.68Y-118.11
X109.22Y-100.33
X109.22Y-107.95
X111.76Y-90.17
X111.76Y-97.79
X111.76Y-100.33
X111.76Y-107.95
X111.76Y-110.49
X111.76Y-118.11
X119.38Y-80.01
X119.38Y-85.01
T4
X33.02Y-38.1
X33.02Y-40.64
X33.02Y-43.18
X33.02Y-45.72
X33.02Y-48.26
X33.02Y-50.8
X33.02Y-53.34
X33.02Y-55.88
X33.02Y-58.42
X33.02Y-66.04
X33.02Y-68.58
X33.02Y-71.12
X33.02Y-73.66
X33.02Y-76.2
X33.02Y-78.74
X33.02Y-81.28
X33.02Y-83.82
X33.02Y-91.44
X33.02Y-93.98
X33.02Y-96.52
X33.02Y-101.6
X33.02Y-104.14
X33.02Y-106.68
X33.02Y-109.22
X36.995Y-107.03
X36.995Y-109.57
X36.995Y-112.11
X36.995Y-114.65
X40.64Y-30.48
X40.64Y-33.02
X40.64Y-35.56
X40.64Y-38.1
X40.64Y-40.64
X40.64Y-43.18
X40.64Y-45.72
X40.64Y-48.26
X40.64Y-50.8
X40.64Y-53.34
X40.64Y-55.88
X40.64Y-58.42
X40.64Y-60.96
X40.64Y-63.5
X40.64Y-66.04
X40.64Y-68.58
X40.64Y-71.12
X40.64Y-73.66
X40.64Y-76.2
X40.64Y-78.74
X58.42Y-30.48
X58.42Y-33.02
X58.42Y-35.56
X58.42Y-38.1
X58.42Y-40.64
X58.42Y-43.18
X58.42Y-45.72
X58.42Y-48.26
X58.42Y-50.8
X58.42Y-53.34
X58.42Y-55.88
X58.42Y-58.42
X58.42Y-60.96
X58.42Y-63.5
X58.42Y-66.04
X58.42Y-68.58
X58.42Y-71.12
X58.42Y-73.66
X58.42Y-76.2
X58.42Y-78.74
X69.7Y-53.92
X69.7Y-58.42
X71.12Y-30.48
X71.12Y-33.02
X71.12Y-35.56
X71.12Y-38.1
X71.12Y-40.64
X71.12Y-43.18
X71.12Y-45.72
X71.12Y-48.26
X76.2Y-53.92
X76.2Y-58.42
X76.2Y-85.09
X76.2Y-87.63
X76.2Y-90.17
X76.2Y-92.71
X91.44Y-53.34
X91.44Y-55.88
X91.44Y-58.42
X91.44Y-60.96
X91.44Y-63.5
X91.44Y-66.04
X91.44Y-68.58
X101.6Y-53.34
X101.6Y-55.88
X101.6Y-58.42
X101.6Y-60.96
X101.6Y-63.5
X101.6Y-66.04
X101.6Y-68.58
T5
X78.74Y-30.48
X81.28Y-30.48
X83.82Y-30.48
X104.14Y-80.01
X104.14Y-85.09
X114.3Y-80.01
X114.3Y-85.09
T6
X91.44Y-38.1
X111.76Y-38.1
T7
X119.38Y-40.64
X119.38Y-45.72
X119.38Y-68.58
X119.38Y-73.66
T8
X91.44Y-30.48
X91.44Y-45.72
X106.68Y-30.48
X106.68Y-45.72
X109.37Y-57.15
X112.37Y-52.45
X115.37Y-57.15
T9
X30.48Y-30.48
X30.48Y-119.38
X119.38Y-30.48
X119.38Y-119.38
M30
